<svg width="60" height="17" viewBox="0 0 60 17" fill="none" xmlns="http://www.w3.org/2000/svg">
<g id="Brand">
<path d="M0.0585938 16.6744H6.93302C10.547 16.6744 12.4718 14.7663 12.4718 12.1743C12.4718 9.76525 10.767 8.31027 8.93642 8.22281V8.0638C10.6099 7.68217 11.8433 6.48161 11.8433 4.56549C11.8433 2.12461 10.052 0.391357 6.50091 0.391357H0.0585938V16.6744ZM3.46045 13.8599V9.53468H6.31236C7.94651 9.53468 8.95999 10.4888 8.95999 11.8324C8.95999 13.0569 8.13506 13.8599 6.23379 13.8599H3.46045ZM3.46045 7.20512V3.17411H6.04524C7.55368 3.17411 8.41004 3.96123 8.41004 5.13794C8.41004 6.42595 7.37298 7.20512 5.98238 7.20512H3.46045Z" fill="#8CB7F5"/>
<path d="M14.2141 16.6744H17.561V9.76525C17.561 8.26257 18.6452 7.22897 20.1222 7.22897C20.5857 7.22897 21.2221 7.30848 21.5364 7.41184V4.40647C21.2378 4.33491 20.8214 4.28721 20.4836 4.28721C19.1323 4.28721 18.0245 5.08228 17.5845 6.59292H17.4588V4.46212H14.2141V16.6744Z" fill="#8CB7F5"/>
<path d="M25.9538 16.905C27.7372 16.905 28.8921 16.1179 29.4813 14.9809H29.5756V16.6744H32.7496V8.43748C32.7496 5.52752 30.3141 4.30311 27.6272 4.30311C24.736 4.30311 22.8347 5.70244 22.3712 7.92864L25.4667 8.18306C25.6945 7.37209 26.4094 6.77578 27.6115 6.77578C28.7507 6.77578 29.4028 7.35619 29.4028 8.35798V8.40568C29.4028 9.1928 28.5778 9.29616 26.4802 9.50288C24.0918 9.7255 21.947 10.5365 21.947 13.2636C21.947 15.6806 23.6518 16.905 25.9538 16.905ZM26.9123 14.5675C25.8831 14.5675 25.1445 14.0825 25.1445 13.1523C25.1445 12.1982 25.9223 11.7291 27.1008 11.5621C27.8315 11.4588 29.0257 11.2838 29.4263 11.0135V12.3095C29.4263 13.5896 28.3814 14.5675 26.9123 14.5675Z" fill="#8CB7F5"/>
<path d="M38.2846 9.61419C38.2925 8.03995 39.2195 7.11767 40.5709 7.11767C41.9143 7.11767 42.7235 8.00815 42.7157 9.50288V16.6744H46.0625V8.89862C46.0625 6.05227 44.4127 4.30311 41.8986 4.30311C40.1073 4.30311 38.811 5.19359 38.2689 6.61677H38.1275V4.46212H34.9378V16.6744H38.2846V9.61419Z" fill="#8CB7F5"/>
<path d="M52.7387 16.8732C54.6871 16.8732 55.7006 15.7362 56.1641 14.7186H56.3055V16.6744H59.6053V0.391357H56.2663V6.51341H56.1641C55.7163 5.51957 54.7499 4.30311 52.7308 4.30311C50.0832 4.30311 47.8441 6.3862 47.8441 10.5842C47.8441 14.6708 49.9889 16.8732 52.7387 16.8732ZM53.7993 14.1779C52.1573 14.1779 51.2617 12.6991 51.2617 10.5683C51.2617 8.45339 52.1416 6.9984 53.7993 6.9984C55.4256 6.9984 56.337 8.38978 56.337 10.5683C56.337 12.7468 55.4099 14.1779 53.7993 14.1779Z" fill="#8CB7F5"/>
</g>
</svg>
