<svg width="14" height="17" viewBox="0 0 14 17" fill="none" xmlns="http://www.w3.org/2000/svg">
<g id="Group 2" opacity="0.7">
<path id="Path" opacity="0.3" fill-rule="evenodd" clip-rule="evenodd" d="M3.05094 6.14844H2.29266C2.25358 6.14844 2.19563 6.20346 2.19338 6.23981L1.63477 15.3765L12.0716 15.3745L11.5074 6.23981C11.5053 6.20484 11.4459 6.14844 11.4082 6.14844H10.6499V7.68645C10.6499 8.11117 10.3097 8.45546 9.88999 8.45546C9.47031 8.45546 9.1301 8.11117 9.1301 7.68645V6.14844H4.57073V7.68645C4.57073 8.11117 4.23051 8.45546 3.81083 8.45546C3.39116 8.45546 3.05094 8.11117 3.05094 7.68645V6.14844Z" fill="white"/>
<path id="Combined Shape" fill-rule="evenodd" clip-rule="evenodd" d="M6.85086 0.765625C8.94819 0.765625 10.6503 2.4884 10.6503 4.60885L11.4086 4.61067C12.2489 4.61067 12.9725 5.29856 13.0247 6.14412L13.5952 15.3814C13.6475 16.2283 13.0116 16.9148 12.1739 16.9148H1.52787C0.690571 16.9148 0.0542922 16.2269 0.106513 15.3814L0.676999 6.14412C0.729303 5.29722 1.45144 4.61067 2.29311 4.61067H3.05139C3.05139 2.48725 4.75494 0.765625 6.85086 0.765625ZM9.13054 4.61075C9.13054 3.33787 8.10878 2.30373 6.85086 2.30373C5.59382 2.30373 4.57117 3.33723 4.57117 4.60894L9.13054 4.61075ZM3.05139 6.14864H2.29311C2.25403 6.14864 2.19607 6.20366 2.19383 6.24001L1.63521 15.3767L12.072 15.3747L11.5079 6.24001C11.5057 6.20504 11.4463 6.14864 11.4086 6.14864H10.6503V7.68666C10.6503 8.11137 10.3101 8.45566 9.89044 8.45566C9.47076 8.45566 9.13054 8.11137 9.13054 7.68666V6.14864L4.57118 6.14864V7.68666C4.57118 8.11137 4.23096 8.45566 3.81128 8.45566C3.3916 8.45566 3.05139 8.11137 3.05139 7.68666V6.14864Z" fill="white"/>
</g>
</svg>
